name C:\Users\u0101727\Documents\MyRepositories\upper-imu-dc\Results\main_tracking\Case_95\kinematics.mot
datacolumns 43
datarows 6
range 3.00000000 3.10000000
endheader 
time	clav_prot	clav_elev	scapula_abduction	scapula_elevation	scapula_upward_rot	scapula_winging	plane_elv	shoulder_elv	axial_rot	TrapeziusScapula_M/activation	TrapeziusScapula_S/activation	TrapeziusScapula_I/activation	TrapeziusClavicle_S/activation	SerratusAnterior_I/activation	SerratusAnterior_M/activation	SerratusAnterior_S/activation	Rhomboideus_S/activation	Rhomboideus_I/activation	LevatorScapulae/activation	Coracobrachialis/activation	DeltoideusClavicle_A/activation	DeltoideusScapula_P/activation	DeltoideusScapula_M/activation	LatissimusDorsi_S/activation	LatissimusDorsi_M/activation	LatissimusDorsi_I/activation	PectoralisMajorClavicle_S/activation	PectoralisMajorThorax_I/activation	PectoralisMajorThorax_M/activation	TeresMajor/activation	Infraspinatus_I/activation	Infraspinatus_S/activation	PectoralisMinor/activation	TeresMinor/activation	Subscapularis_S/activation	Subscapularis_M/activation	Subscapularis_I/activation	Supraspinatus_P/activation	Supraspinatus_A/activation	TRIlong/activation	BIC_long/activation	BIC_brevis/activation	
          3.00000000	        -24.91371165	         -4.16459619	        -16.55621172	         -2.55138960	          7.67007969	          6.74634739	        -15.71204132	         15.25739694	         42.62775484	          0.01000155	          0.01333112	          0.01000000	          0.02417886	          0.01005078	          0.04696047	          0.01000341	          0.01012319	          0.01329048	          0.03745198	          0.01008099	          0.01000509	          0.01000429	          0.01000003	          0.01000279	          0.01000264	          0.01000842	          0.01403593	          0.01000168	          0.01317263	          0.01008377	          0.01000071	          0.01000093	          0.01000159	          0.01000115	          0.01096863	          0.01008840	          0.01008229	          0.01001538	          0.01008539	          0.01004411	          0.01002027	          0.01207270	
          3.02000000	        -23.37274667	         -4.54812747	        -16.69792275	         -2.83550851	          7.76248386	          6.81822962	        -16.54066065	         15.36484040	         42.78971930	          0.01000110	          0.02227641	          0.01000099	          0.02860607	          0.02863661	          0.06056357	          0.01000211	          0.01004969	          0.01000436	          0.02958570	          0.01000300	          0.01919963	          0.01000124	          0.03744933	          0.01000113	          0.01000107	          0.01000414	          0.01702190	          0.01000124	          0.01148014	          0.01000106	          0.01221143	          0.01378605	          0.01000107	          0.01003807	          0.01000128	          0.01000114	          0.01000134	          0.01008054	          0.01407980	          0.01000088	          0.01939946	          0.01000718	
          3.04000000	        -23.34983259	         -4.88342371	        -16.52159564	         -3.12302562	          7.86140021	          6.89301147	        -17.37204458	         15.49519914	         42.93448882	          0.01000116	          0.02315262	          0.01000077	          0.02921937	          0.03202309	          0.05848822	          0.01000234	          0.01004617	          0.01000446	          0.02752909	          0.01000630	          0.02086940	          0.01000127	          0.03857235	          0.01000160	          0.01000139	          0.01000488	          0.01795017	          0.01000137	          0.01082720	          0.01000129	          0.01310012	          0.01468813	          0.01000107	          0.01002832	          0.01000249	          0.01000210	          0.01000207	          0.01006822	          0.01523869	          0.01000102	          0.02178652	          0.01001350	
          3.06000000	        -23.34175159	         -5.21220366	        -16.35867186	         -3.41476607	          7.99004593	          6.96281843	        -18.20590953	         15.65845123	         43.02016313	          0.01000103	          0.02531959	          0.01000070	          0.02717780	          0.03398162	          0.06032762	          0.01000270	          0.01004028	          0.01000377	          0.02515550	          0.01000588	          0.02107249	          0.01000136	          0.04232803	          0.01000172	          0.01000145	          0.01000498	          0.01744375	          0.01000113	          0.01069663	          0.01000121	          0.01338744	          0.01499531	          0.01000097	          0.01002706	          0.01000199	          0.01000203	          0.01000180	          0.01006923	          0.01489632	          0.01000096	          0.02220885	          0.01001381	
          3.08000000	        -23.34089340	         -5.52457922	        -16.19560567	         -3.70380440	          8.15320119	          7.02314719	        -19.03165791	         15.85968589	         43.04154920	          0.01000113	          0.02684290	          0.01000075	          0.02686623	          0.03652483	          0.05931591	          0.01000276	          0.01003336	          0.01000298	          0.02338119	          0.01000449	          0.02275078	          0.01000119	          0.04328068	          0.01000184	          0.01000156	          0.01000497	          0.01829397	          0.01000144	          0.01089185	          0.01000116	          0.01382311	          0.01668520	          0.01000107	          0.01002674	          0.01000191	          0.01000210	          0.01000161	          0.01007137	          0.01623165	          0.01000093	          0.02361095	          0.01000889	
          3.10000000	        -23.34899558	         -5.81505700	        -16.03220976	         -3.98795348	          8.35840882	          7.07002698	        -19.84201504	         16.09884621	         42.97392801	          0.01000104	          0.02859268	          0.01000072	          0.02608541	          0.03831740	          0.06016281	          0.01000314	          0.01003163	          0.01000293	          0.02178466	          0.01000453	          0.02308767	          0.01000127	          0.04628004	          0.01000193	          0.01000162	          0.01000508	          0.01814903	          0.01000131	          0.01025428	          0.01000112	          0.01425495	          0.01688741	          0.01000103	          0.01002714	          0.01000189	          0.01000220	          0.01000153	          0.01007494	          0.01601143	          0.01000092	          0.02431403	          0.01000957	
